@startuml UTSPbo
interface IBendaGeometri{
    + mencetakNamaBenda(): void
    + mencetakWarnaBenda(): void
    + mengaturNamaBenda(): void
    + mengaturWarnaBenda(): void
}

abstract class Benda2D {
    - luas: float
    - keliling: float
    - namaBenda: string
    - warnaBenda: string
    + Benda2D(warna: string, namaBenda: string)
    + menghitungLuas(params: double[]): double
    + menghitungLuas(params: int[]): double
    + menghitungKeliling(): float
    + menghitungKeliling(params: double[]): double
    + menghitungKeliling(params: int[]): double
    + mencetakLuas(): void
    + mencetakKeliling(): void
}

abstract class Benda3D {
    - luasPermukaan: float
    - luasAlas: float
    - volume: float
    - namaBenda: string
    - warnaBenda: string
    + Benda3D(warna: string, namaBenda: string)
    + menghitungVolume(): float
    + menghitungVolume(params: double[]): double
    + menghitungVolume(params: int[]): double
    + menghitungLuasPermukaan(): float
    + menghitungLuasPermukaan(params: double[]): double
    + menghitungLuasPermukaan(params: int[]): double
    + mencetakVolume(): void
    + mencetakLuasPermukaan(): void
}

Benda2D --|> IBendaGeometri
Benda3D --|> IBendaGeometri


' Benda 2D - Implementasi
class Segitiga {
    - alas: double
    - tinggi: double
    + Segitiga(alas: double, tinggi: double)
    + Segitiga(alas: int, tinggi: double)
    + Segitiga(alas: double, tinggi: int)
    + Segitiga(alas: int, tinggi: int)
    + aturAlas(alas: double): void
    + aturAlas(alas: int): void
    + aturTinggi(tinggi: double): void
    + aturTinggi(tinggi: int): void
    + cetakAlas(): void
    + cetakTinggi(): void
}

class Persegi {
    - sisi: double
    + Persegi(sisi: double)
    + Persegi(sisi: int)
    + cetakSisi(): void
    + aturSisi(sisi: double): void
    + aturSisi(sisi: int): void
}

class PersegiPanjang {
    - panjang: double
    - lebar: double
    + PersegiPanjang(panjang: double, lebar: double)
    + PersegiPanjang(panjang: int, lebar: double)
    + PersegiPanjang(panjang: double, lebar: int)
    + PersegiPanjang(panjang: int, lebar: int)
    + cetakPanjang(): void
    + cetakLebar(): void
    + aturPanjang(sisi: double): void
    + aturPanjang(sisi: int): void
    + aturLebar(sisi: double): void
    + aturLebar(sisi: int): void
}

class JajaranGenjang {
    - alas: double
    - tinggi: double
    - sisiMiring: double
    + JajaranGenjang(alas: double, tinggi: double, sisiMiring: double)
    + JajaranGenjang(alas: int, tinggi: int, sisiMiring: int)
    + cetakAlas(): void
    + cetakTinggi(): void
    + cetakSisiMiring(): void
    + aturAlas(alas: double): void
    + aturAlas(alas: int): void
    + aturTinggi(tinggi: double): void
    + aturTinggi(tinggi: int): void
    + aturSisiMiring(sisiMiring: double): void
    + aturSisiMiring(sisiMiring: int): void
}

class Trapesium {
    - alasAtas: double
    - alasBawah: double
    - tinggi: double
    - sisiKiri: double
    - sisiKanan: double
    + Trapesium(alasAtas: double, alasBawah: double, tinggi: double, sisiKiri: double, sisiKanan: double)
    + Trapesium(alasAtas: int, alasBawah: int, tinggi: int, sisiKiri: int, sisiKanan: int)
    + cetakAlasAtas(): void
    + cetakAlasBawah(): void
    + cetakTinggi(): void
    + cetakSisiKiri(): void
    + cetakSisiKanan(): void
    + aturAlasAtas(alasAtas: double): void
    + aturAlasAtas(alasAtas: int): void
    + aturAlasBawah(alasBawah: double): void
    + aturAlasBawah(alasBawah: int): void
    + aturTinggi(tinggi: double): void
    + aturTinggi(tinggi: int): void
    + aturSisiKiri(sisiKiri: double): void
    + aturSisiKiri(sisiKiri: int): void
    + aturSisiKanan(sisiKanan: double): void
    + aturSisiKanan(sisiKanan: int): void
}

class BelahKetupat {
    - diagonal1: double
    - diagonal2: double
    - sisi: double
    + BelahKetupat(diagonal1: double, diagonal2: double, sisi: double)
    + BelahKetupat(diagonal1: int, diagonal2: int, sisi: int)
    + cetakDiagonal1(): void
    + cetakDiagonal2(): void
    + cetakSisi(): void
    + aturDiagonal1(diagonal1: double): void
    + aturDiagonal1(diagonal1: int): void
    + aturDiagonal2(diagonal2: double): void
    + aturDiagonal2(diagonal2: int): void
    + aturSisi(sisi: double): void
    + aturSisi(sisi: int): void
}

class LayangLayang {
    - diagonal1: double
    - diagonal2: double
    - sisiPendek: double
    - sisiPanjang: double
    + LayangLayang(diagonal1: double, diagonal2: double, sisiPendek: double, sisiPanjang: double)
    + LayangLayang(diagonal1: int, diagonal2: int, sisiPendek: int, sisiPanjang: int)
    + cetakDiagonal1(): void
    + cetakDiagonal2(): void
    + cetakSisiPendek(): void
    + cetakSisiPanjang(): void
    + aturDiagonal1(diagonal1: double): void
    + aturDiagonal1(diagonal1: int): void
    + aturDiagonal2(diagonal2: double): void
    + aturDiagonal2(diagonal2: int): void
    + aturSisiPendek(sisiPendek: double): void
    + aturSisiPendek(sisiPendek: int): void
    + aturSisiPanjang(sisiPanjang: double): void
    + aturSisiPanjang(sisiPanjang: int): void
}

class Lingkaran {
    - radius: double
    + Lingkaran(radius: double)
    + Lingkaran(radius: int)
    + cetakRadius(): void
    + aturRadius(radius: double): void
    + aturRadius(radius: int): void
}

class TemberengLingkaran {
    - sudut: double  
    + TemberengLingkaran(radius: double, sudut: double)
    + TemberengLingkaran(radius: int, sudut: int)
    + cetakSudut(): void
    + aturSudut(sudut: double): void
    + aturSudut(sudut: int): void
}

TemberengLingkaran --|> Lingkaran

class JuringLingkaran {
    - sudut: double  
    + JuringLingkaran(radius: double, sudut: double)
    + JuringLingkaran(radius: int, sudut: int)
    + cetakSudut(): void
    + aturSudut(sudut: double): void
    + aturSudut(sudut: int): void
}
JuringLingkaran --|> Lingkaran

Segitiga --|> Benda2D
Persegi --|> Benda2D
PersegiPanjang --|> Benda2D
JajaranGenjang --|> Benda2D
Trapesium --|> Benda2D
BelahKetupat --|> Benda2D
LayangLayang --|> Benda2D
Lingkaran --|> Benda2D
TemberengLingkaran --|> Benda2D
JuringLingkaran --|> Benda2D



' Benda 3D - Implementasi
' ======================== PRISMA ========================

class Prisma {
    - tinggi: double
    + aturTinggi(tinggi: double): void
    + aturTinggi(tinggi: int): void
    + cetakTinggi(): void

}
Prisma --|> Benda3D

class PrismaSegitiga {
    - bendaAlas: Segitiga
    + PrismaSegitiga(bendaAlas: Segitiga, tinggi: double)
    + PrismaSegitiga(bendaAlas: Segitiga, tinggi: int)
    + aturBendaAlas(bendaAlas: Segitiga): void
    + cetakInfoBendaAlas(): void
}
PrismaSegitiga --|> Prisma

class PrismaPersegi {
    - bendaAlas: Persegi
    + PrismaPersegi(bendaAlas: Persegi, tinggi: double)
    + PrismaPersegi(bendaAlas: Persegi, tinggi: int)
    + aturBendaAlas(bendaAlas: Persegi): void
    + cetakInfoBendaAlas(): void
}

PrismaPersegi --|> Prisma

class PrismaPersegiPanjang {
    - bendaAlas: PersegiPanjang
    + PrismaPersegiPanjang(bendaAlas: PersegiPanjang, tinggi: double)
    + PrismaPersegiPanjang(bendaAlas: PersegiPanjang, tinggi: int)
    + aturBendaAlas(bendaAlas: PersegiPanjang): void
    + cetakInfoBendaAlas(): void
}

PrismaPersegiPanjang --|> Prisma

class PrismaJajaranGenjang {
    - bendaAlas: JajaranGenjang
    + PrismaJajaranGenjang(bendaAlas: JajaranGenjang, tinggi: double)
    + PrismaJajaranGenjang(bendaAlas: JajaranGenjang, tinggi: int)
    + aturBendaAlas(bendaAlas: JajaranGenjang): void
    + cetakInfoBendaAlas(): void
}

PrismaJajaranGenjang --|> Prisma

class PrismaTrapesium {
    - bendaAlas: Trapesium
    + PrismaTrapesium(bendaAlas: Trapesium, tinggi: double)
    + PrismaTrapesium(bendaAlas: Trapesium, tinggi: int)
    + aturBendaAlas(bendaAlas: Trapesium): void
    + cetakInfoBendaAlas(): void
}

PrismaTrapesium --|> Prisma

class PrismaBelahKetupat {
    - bendaAlas: BelahKetupat
    + PrismaBelahKetupat(bendaAlas: BelahKetupat, tinggi: double)
    + PrismaBelahKetupat(bendaAlas: BelahKetupat, tinggi: int)
    + aturBendaAlas(bendaAlas: BelahKetupat): void
    + cetakInfoBendaAlas(): void
}

PrismaBelahKetupat --|> Prisma

class PrismaLayangLayang {
    - bendaAlas: LayangLayang
    + PrismaLayangLayang(bendaAlas: LayangLayang, tinggi: double)
    + PrismaLayangLayang(bendaAlas: LayangLayang, tinggi: int)
    + aturBendaAlas(bendaAlas: LayangLayang): void
    + cetakInfoBendaAlas(): void
}

PrismaLayangLayang --|> Prisma

' ======================== LIMAS ========================
class Limas {
    - tinggi: double
    + aturTinggi(tinggi: double): void
    + aturTinggi(tinggi: int): void
    + cetakTinggi(): void

}
Limas --|> Benda3D

class LimasSegitiga {
    - bendaAlas: Segitiga
    + LimasSegitiga(bendaAlas: Segitiga, tinggi: double)
    + LimasSegitiga(bendaAlas: Segitiga, tinggi: int)
    + aturBendaAlas(bendaAlas: Segitiga): void
    + cetakInfoBendaAlas(): void
}

LimasSegitiga --|> Limas

class LimasPersegi {
    - bendaAlas: Persegi
    + LimasPersegi(bendaAlas: Persegi, tinggi: double)
    + LimasPersegi(bendaAlas: Persegi, tinggi: int)
    + aturBendaAlas(bendaAlas: Persegi): void
    + cetakInfoBendaAlas(): void
}

LimasPersegi --|> Limas

class LimasPersegiPanjang {
    - bendaAlas: PersegiPanjang
    + LimasPersegiPanjang(bendaAlas: PersegiPanjang, tinggi: double)
    + LimasPersegiPanjang(bendaAlas: PersegiPanjang, tinggi: int)
    + aturBendaAlas(bendaAlas: PersegiPanjang): void
    + cetakInfoBendaAlas(): void
}

LimasPersegiPanjang --|> Limas

class LimasJajaranGenjang {
    - bendaAlas: JajaranGenjang
    + LimasJajaranGenjang(bendaAlas: JajaranGenjang, tinggi: double)
    + LimasJajaranGenjang(bendaAlas: JajaranGenjang, tinggi: int)
    + aturBendaAlas(bendaAlas: JajaranGenjang): void
    + cetakInfoBendaAlas(): void
}
LimasJajaranGenjang --|> Limas

class LimasTrapesium {
    - bendaAlas: Trapesium
    + LimasTrapesium(bendaAlas: Trapesium, tinggi: double)
    + LimasTrapesium(bendaAlas: Trapesium, tinggi: int)
    + aturBendaAlas(bendaAlas: Trapesium): void
    + cetakInfoBendaAlas(): void
}

LimasTrapesium --|> Limas

class LimasBelahKetupat {
    - bendaAlas: BelahKetupat
    + LimasBelahKetupat(bendaAlas: BelahKetupat, tinggi: double)
    + LimasBelahKetupat(bendaAlas: BelahKetupat, tinggi: int)
    + aturBendaAlas(bendaAlas: BelahKetupat): void
    + cetakInfoBendaAlas(): void
}

LimasBelahKetupat --|> Limas

class LimasLayangLayang {
    - bendaAlas: LayangLayang
    + LimasLayangLayang(bendaAlas: LayangLayang, tinggi: double)
    + LimasLayangLayang(bendaAlas: LayangLayang, tinggi: int)
    + aturBendaAlas(bendaAlas: LayangLayang): void
    + cetakInfoBendaAlas(): void
}
LimasBelahKetupat --|> Limas

' ======================== BANGUN PUTAR ========================
class BangunPutarTegak {
    - tinggi: double
    - bendaAlas: Lingkaran
    + aturTinggi(tinggi: double): void
    + aturTinggi(tinggi: int): void
    + cetakTinggi(): void
    + aturBendaAlas(bendaAlas: Lingkaran): void
    + cetakInfoBendaAlas(): void
}

BangunPutarTegak --|> Bangun3D

class Tabung {
    + Tabung(bendaAlas: Lingkaran, tinggi: double)
    + Tabung(bendaAlas: Lingkaran, tinggi: int)
}

Tabung --|> BangunPutarTegak

class Kerucut {
    + Kerucut(bendaAlas: Lingkaran, tinggi: double)
    + Kerucut(bendaAlas: Lingkaran, tinggi: int)
}

Kerucut --|> BangunPutarTegak

class KerucutTerpancung {
    - KerucutPancungan: Kerucut 
    + KerucutTerpancung(bendaAlas: Lingkaran, KerucutPancungan: Kerucut, tinggi: double)
    + KerucutTerpancung(bendaAlas: Lingkaran, KerucutPancungan: Kerucut, tinggi: int)
    + aturKerucutPancungan(kerucut: Kerucut): void
    + cetakInfoKerucutPancungan(): void
}

KerucutTerpancung --|> Kerucut

class Bola {
    - radius: double
    + Bola(radius: double)
    + Bola(radius: int)
    + aturRadius(radius: double): void
    + aturRadius(radius: int): void
    + cetakRadius(): void
}

Bola --|> Benda3D

class TemberengBola {
    - tinggi: double
    + TemberengBola(radius: double, tinggi: double)
    + TemberengBola(radius: int, tinggi: int)
    + aturTinggi(tinggi: double): void
    + aturTinggi(tinggi: int): void
    + cetakTinggi(): void
}

TemberengBola --|> Bola

class JuringBola {
    - radius: double
    + JuringBola(radius: double, sudut: double)
    + JuringBola(radius: int, sudut: int)
    + aturSudut(sudut: double): void
    + aturSudut(sudut: int): void
    + cetakSudut(): void
}
JuringBola --|> Bola

class CincinBola {
    - radiusCincin: double
    + CincinBola(radiusBola: double, radiusCincin: double)
    + CincinBola(radiusBola: int, radiusCincin: int)
    + aturRadiusCincin(radiusCincin: double): void
    + aturRadiusCincin(radiusCincin: int): void
    + cetakRadiusCincin(): void
}

CincinBola --|> Bola

' ======================== KOMPOSISI DENGAN BENDA2D ========================
PrismaSegitiga *-- Segitiga : bendaAlas
PrismaPersegi *-- Persegi : bendaAlas
PrismaPersegiPanjang *-- PersegiPanjang : bendaAlas
PrismaJajaranGenjang *-- JajaranGenjang : bendaAlas
PrismaTrapesium *-- Trapesium : bendaAlas
PrismaBelahKetupat *-- BelahKetupat : bendaAlas
PrismaLayangLayang *-- LayangLayang : bendaAlas

LimasSegitiga *-- Segitiga : bendaAlas
LimasPersegi *-- Persegi : bendaAlas
LimasPersegiPanjang *-- PersegiPanjang : bendaAlas
LimasJajaranGenjang *-- JajaranGenjang : bendaAlas
LimasTrapesium *-- Trapesium : bendaAlas
LimasBelahKetupat *-- BelahKetupat : bendaAlas
LimasLayangLayang *-- LayangLayang : bendaAlas

Tabung *-- Lingkaran : bendaAlas
Kerucut *-- Lingkaran : bendaAlas
KerucutTerpancung *-- Lingkaran : alasBawah
KerucutTerpancung *-- Lingkaran : alasAtas

@enduml







